<svg width="200" height="189" viewBox="0 0 200 189" fill="none" xmlns="http://www.w3.org/2000/svg">
<path d="M50.0621 57.1682L92.7645 99.8706H50.0621V57.1682Z" fill="#0198FF"/>
<path d="M92.7645 0L50.0621 42.7024V0H92.7645Z" fill="#0198FF"/>
<path d="M149.933 57.1682V99.8706H107.23L149.933 57.1682Z" fill="#0198FF"/>
<path d="M149.938 0L149.933 42.7024L107.23 0H149.938Z" fill="#0198FF"/>
<path d="M100.213 23.9834L126.375 50.1453L116.629 59.886L126.271 69.7875L119.642 76.4161L110 66.5198L100.213 76.3072L74.0508 50.1453L83.8174 40.3787L73.6255 30.1868L80.2541 23.5581L90.4461 33.7501L100.213 23.9834Z" fill="#0198FF"/>
<path d="M6.18365 127.929H0.124207V122.113H6.18365V115.348L13.1318 114.204V122.113H24.2711V127.929H13.1318V138.794C13.1102 139.605 13.2054 140.415 13.4146 141.199C13.5619 141.732 13.8337 142.223 14.2074 142.628C14.5485 142.971 14.9795 143.209 15.4496 143.312C15.9885 143.432 16.5389 143.49 17.0906 143.486C17.7319 143.486 18.3227 143.486 18.8731 143.425C19.4035 143.391 19.9313 143.325 20.4536 143.226C20.9927 143.126 21.523 142.983 22.0392 142.797C22.6456 142.581 23.2405 142.334 23.8217 142.056L24.7811 148.117C23.4457 148.664 22.0506 149.048 20.6253 149.261C19.1934 149.485 17.7468 149.599 16.2979 149.603C14.8557 149.62 13.4157 149.486 12.0007 149.204C10.8326 148.978 9.74211 148.45 8.83466 147.673C7.89467 146.799 7.20997 145.681 6.85524 144.441C6.35103 142.661 6.12445 140.813 6.18365 138.962V127.929Z" fill="#0198FF"/>
<path d="M40.8437 121.408C42.6932 121.359 44.5379 121.621 46.3022 122.185C47.6188 122.612 48.8129 123.357 49.7814 124.355C50.6616 125.331 51.2957 126.508 51.6295 127.786C52.0281 129.265 52.2235 130.792 52.2102 132.325V148.347C51.2003 148.571 49.6854 148.857 47.6656 149.143C45.4364 149.466 43.1864 149.619 40.9346 149.603C39.3876 149.618 37.8436 149.464 36.3294 149.143C35.06 148.882 33.857 148.361 32.7947 147.611C31.8162 146.911 31.0362 145.964 30.5325 144.864C29.9669 143.559 29.696 142.143 29.7397 140.719C29.693 139.346 30.0048 137.984 30.6436 136.772C31.2319 135.729 32.0685 134.852 33.0775 134.219C34.1615 133.549 35.3551 133.081 36.6021 132.835C37.9601 132.545 39.3446 132.401 40.7326 132.406C42.3462 132.388 43.9574 132.541 45.5398 132.861V131.988C45.5739 130.751 45.126 129.55 44.2925 128.643C43.461 127.752 42.0354 127.304 40.0156 127.301C38.7378 127.298 37.4616 127.394 36.1981 127.586C35.1902 127.725 34.1965 127.954 33.229 128.271L32.2494 122.624C33.4489 122.24 34.6787 121.962 35.9254 121.791C37.5529 121.538 39.197 121.41 40.8437 121.408ZM41.4648 143.94C42.2172 143.94 42.9544 143.94 43.6714 143.94C44.2963 143.928 44.9201 143.88 45.5398 143.797V137.594C45.0853 137.517 44.5298 137.451 43.8987 137.395C43.2675 137.339 42.6716 137.308 42.1465 137.308C41.4455 137.306 40.7453 137.354 40.0509 137.451C39.4362 137.537 38.8363 137.708 38.2684 137.961C37.785 138.17 37.3663 138.507 37.0565 138.937C36.7335 139.425 36.5741 140.004 36.6021 140.591C36.5608 141.111 36.6666 141.631 36.9071 142.092C37.1476 142.554 37.513 142.936 37.9604 143.195C39.0459 143.743 40.2527 144 41.4648 143.94Z" fill="#0198FF"/>
<path d="M81.1693 129.261C80.7148 129.144 80.1594 129.031 79.5534 128.919C78.9475 128.807 78.3011 128.7 77.6598 128.603C77.0185 128.506 76.3974 128.439 75.7966 128.403C75.1957 128.368 74.6806 128.347 74.2817 128.347C73.3188 128.346 72.3565 128.393 71.3984 128.49C70.4241 128.59 69.4597 128.771 68.5151 129.031V148.975H61.4862V123.869C63.3404 123.182 65.2404 122.627 67.1719 122.21C69.4156 121.769 71.6985 121.566 73.9838 121.602C74.3625 121.602 74.8977 121.602 75.5946 121.659C76.2914 121.715 77.0387 121.766 77.8315 121.858C78.6243 121.95 79.4221 122.072 80.2351 122.205C80.9812 122.312 81.7164 122.486 82.4316 122.726L81.1693 129.261Z" fill="#0198FF"/>
<path d="M110.406 145.712C110.406 150.1 109.359 153.333 107.265 155.413C105.171 157.493 101.805 158.541 97.1662 158.558C95.5603 158.565 93.9585 158.393 92.3893 158.048C90.8745 157.7 89.4 157.302 88.0063 156.843L89.3041 150.9C90.3981 151.318 91.5494 151.708 92.758 152.069C94.2394 152.469 95.7697 152.653 97.3025 152.615C98.3174 152.643 99.3297 152.498 100.297 152.186C101.004 151.953 101.646 151.55 102.165 151.012C102.617 150.515 102.946 149.916 103.125 149.266C103.317 148.568 103.412 147.846 103.407 147.121V146.059C102.532 146.404 101.634 146.691 100.721 146.917C99.8577 147.113 98.9751 147.209 98.0903 147.203C94.6229 147.203 91.9938 146.097 90.2029 143.884C88.412 141.672 87.5165 138.608 87.5165 134.694C87.5165 130.269 88.7234 126.97 91.1371 124.799C93.5507 122.627 96.8313 121.541 100.979 121.541C104.176 121.584 107.352 122.065 110.421 122.971L110.406 145.712ZM94.5506 134.678C94.5506 136.888 94.9461 138.574 95.7372 139.738C96.5283 140.902 97.7722 141.484 99.4688 141.484C100.185 141.489 100.899 141.393 101.59 141.199C102.211 141.022 102.809 140.772 103.372 140.453V127.53C102.906 127.423 102.434 127.346 101.958 127.301C101.544 127.265 101.11 127.244 100.66 127.244C96.5872 127.244 94.5506 129.722 94.5506 134.678Z" fill="#0198FF"/>
<path d="M141.228 147.831C139.945 148.465 138.588 148.935 137.189 149.23C136.044 149.467 134.879 149.592 133.71 149.603C132.157 149.65 130.611 149.377 129.165 148.801C127.995 148.314 126.977 147.515 126.221 146.488C125.448 145.384 124.918 144.125 124.666 142.797C124.349 141.159 124.199 139.492 124.217 137.824V127.929H116.854V122.113H131.16V138.738C131.16 140.341 131.453 141.532 132.038 142.312C132.624 143.091 133.595 143.483 134.952 143.486C136.817 143.45 138.651 143.001 140.325 142.169L141.228 147.831ZM130.877 114.378C130.906 114.983 130.805 115.588 130.581 116.15C130.357 116.713 130.015 117.219 129.579 117.635C128.735 118.427 127.62 118.857 126.469 118.835C125.324 118.86 124.216 118.429 123.383 117.635C122.954 117.215 122.618 116.708 122.399 116.146C122.179 115.584 122.081 114.981 122.111 114.378C122.078 113.765 122.174 113.152 122.394 112.58C122.613 112.008 122.951 111.489 123.383 111.059C124.216 110.265 125.324 109.834 126.469 109.859C127.62 109.837 128.735 110.267 129.579 111.059C130.019 111.485 130.362 112.003 130.586 112.575C130.81 113.148 130.909 113.763 130.877 114.378Z" fill="#0198FF"/>
<path d="M147.571 122.956C148.816 122.615 150.353 122.29 152.181 121.98C154.155 121.667 156.151 121.515 158.149 121.526C159.942 121.471 161.728 121.771 163.406 122.409C164.714 122.932 165.858 123.802 166.719 124.926C167.559 126.085 168.146 127.411 168.44 128.817C168.792 130.461 168.962 132.139 168.945 133.821V148.975H161.982V134.735C161.982 132.219 161.699 130.408 161.134 129.302C160.568 128.199 159.417 127.643 157.685 127.643C157.18 127.643 156.64 127.643 156.13 127.699C155.62 127.755 155.084 127.796 154.519 127.872V148.975H147.571V122.956Z" fill="#0198FF"/>
<path d="M199.874 135.48C199.902 137.451 199.596 139.413 198.97 141.28C198.423 142.929 197.566 144.455 196.445 145.773C195.358 147.022 194.016 148.017 192.512 148.689C189.234 150.057 185.554 150.057 182.276 148.689C180.766 148.014 179.416 147.02 178.317 145.773C177.173 144.463 176.297 142.936 175.742 141.28C175.116 139.413 174.811 137.451 174.838 135.48C174.813 133.523 175.13 131.577 175.772 129.731C176.34 128.085 177.224 126.568 178.373 125.269C179.48 124.035 180.84 123.059 182.357 122.409C185.594 121.075 189.219 121.075 192.456 122.409C193.962 123.066 195.312 124.041 196.415 125.269C197.56 126.566 198.434 128.084 198.985 129.731C199.603 131.582 199.903 133.527 199.874 135.48ZM181.908 135.536C181.908 137.936 182.332 139.88 183.18 141.367C184.028 142.855 185.395 143.598 187.28 143.598C188.099 143.635 188.913 143.447 189.634 143.054C190.356 142.661 190.96 142.078 191.38 141.367C192.306 139.88 192.767 137.936 192.764 135.536C192.764 133.131 192.34 131.201 191.492 129.731C190.643 128.261 189.275 127.53 187.391 127.53C186.575 127.491 185.764 127.674 185.042 128.061C184.321 128.449 183.716 129.025 183.291 129.731C182.352 131.201 181.908 133.131 181.908 135.536Z" fill="#0198FF"/>
<path d="M37.6533 184.805C37.4205 184.271 37.2167 183.79 37.0712 183.35C36.9257 182.91 36.7337 182.476 36.5707 182.037C36.4077 181.597 36.2448 181.139 36.0818 180.664C35.9188 180.189 35.7268 179.643 35.4998 179.033C35.2844 179.62 35.0865 180.207 34.9177 180.664C34.7489 181.122 34.5452 181.597 34.3823 182.037C34.2193 182.476 34.0505 182.91 33.8701 183.35C33.6897 183.79 33.4859 184.271 33.2531 184.805H31.833C31.3829 182.881 31.0143 180.981 30.7271 179.104C30.44 177.227 30.2266 175.499 30.0869 173.919H31.9028C31.9494 174.505 32.0018 175.127 32.0542 175.714C32.1065 176.3 32.1764 176.887 32.2521 177.555C32.3277 178.224 32.4208 178.893 32.5198 179.643C32.6187 180.394 32.7351 181.239 32.8574 182.177C33.1076 181.55 33.3172 181.004 33.486 180.535C33.6547 180.066 33.8119 179.62 33.9516 179.198C34.0913 178.775 34.2251 178.347 34.359 177.907C34.4929 177.467 34.6325 176.975 34.7897 176.429H36.2331C36.3883 176.973 36.528 177.465 36.6522 177.907C36.7744 178.347 36.9083 178.775 37.048 179.198C37.1876 179.62 37.3331 180.066 37.4903 180.535C37.6474 181.004 37.8395 181.544 38.0723 182.154C38.212 181.292 38.3342 180.494 38.4448 179.761C38.5554 179.028 38.6485 178.335 38.7242 177.684C38.7999 177.033 38.8697 176.406 38.9337 175.796C38.9977 175.186 39.0501 174.558 39.0967 173.919H40.8428C40.7671 174.699 40.674 175.538 40.5634 176.429C40.4528 177.321 40.3248 178.236 40.1676 179.174C40.0105 180.113 39.8417 181.063 39.6554 182.025C39.4692 182.987 39.2771 183.913 39.0734 184.805H37.6533Z" fill="#0198FF"/>
<path d="M47.5012 173.661C48.1297 173.622 48.7588 173.726 49.3427 173.963C49.9267 174.2 50.4508 174.566 50.8769 175.033C51.6529 175.948 52.041 177.336 52.041 179.198V179.878H44.3349C44.3394 180.359 44.4395 180.834 44.6295 181.275C44.8194 181.717 45.0953 182.115 45.4408 182.447C46.2287 183.076 47.2196 183.39 48.2229 183.327C48.8091 183.337 49.3947 183.282 49.9689 183.163C50.3453 183.086 50.7122 182.968 51.0632 182.811L51.3193 184.453C50.9165 184.634 50.4948 184.767 50.0621 184.852C49.3893 185 48.702 185.071 48.0133 185.063C47.1745 185.079 46.3406 184.932 45.5572 184.629C44.8981 184.369 44.3025 183.969 43.8111 183.456C43.3363 182.942 42.9788 182.329 42.7635 181.661C42.5251 180.931 42.4072 180.166 42.4142 179.397C42.395 178.531 42.5453 177.67 42.8566 176.863C43.1207 176.202 43.5169 175.603 44.0206 175.104C44.4874 174.644 45.0418 174.285 45.6503 174.048C46.2383 173.805 46.8658 173.674 47.5012 173.661ZM50.1086 178.306C50.152 177.509 49.8941 176.725 49.3869 176.112C49.1469 175.845 48.8515 175.634 48.5217 175.494C48.1918 175.354 47.8355 175.289 47.4779 175.303C47.0567 175.299 46.6397 175.387 46.2556 175.561C45.9004 175.724 45.5801 175.955 45.3127 176.241C45.0508 176.524 44.8383 176.849 44.6841 177.203C44.5302 177.554 44.4282 177.926 44.3815 178.306H50.1086Z" fill="#0198FF"/>
<path d="M56.8601 174.318C57.1815 174.137 57.521 173.992 57.8729 173.884C58.3508 173.731 58.8498 173.655 59.3512 173.661C60.0265 173.649 60.6955 173.794 61.3068 174.083C61.8734 174.358 62.3708 174.759 62.7619 175.256C63.1761 175.79 63.4843 176.399 63.6698 177.051C63.8868 177.801 63.9927 178.58 63.9841 179.362C63.9936 180.16 63.8676 180.953 63.6116 181.708C63.3853 182.371 63.029 182.981 62.564 183.503C62.1131 184.007 61.5564 184.404 60.9343 184.664C60.261 184.936 59.5411 185.072 58.8157 185.063C58.0512 185.07 57.2876 185.007 56.5342 184.875C55.9922 184.78 55.4559 184.655 54.9278 184.5V168.874L56.8601 168.546V174.318ZM56.8601 183.116C57.1515 183.191 57.4468 183.25 57.7448 183.292C58.0225 183.33 58.3026 183.35 58.5829 183.35C59.0485 183.376 59.514 183.3 59.9479 183.128C60.3818 182.956 60.7738 182.692 61.0973 182.353C61.763 181.507 62.0872 180.439 62.0052 179.362C62.0094 178.829 61.9547 178.298 61.8423 177.778C61.75 177.328 61.5764 176.898 61.3301 176.511C61.1027 176.164 60.7951 175.879 60.4338 175.678C60.0285 175.465 59.5756 175.36 59.1184 175.373C58.2925 175.389 57.4963 175.687 56.8601 176.218V183.116Z" fill="#0198FF"/>
<path d="M65.3112 187.034H76.5792V188.676H65.3112V187.034Z" fill="#0198FF"/>
<path d="M85.0069 168.874L86.9393 168.546V184.5C86.5202 184.623 85.9847 184.752 85.3329 184.875C84.5797 185.008 83.8159 185.071 83.0513 185.063C82.326 185.072 81.6061 184.936 80.9328 184.664C80.3129 184.411 79.7564 184.022 79.3031 183.526C78.8381 183.005 78.4818 182.394 78.2554 181.731C77.9995 180.977 77.8735 180.183 77.8829 179.385C77.8743 178.604 77.9803 177.825 78.1972 177.074C78.3846 176.421 78.697 175.812 79.1168 175.28C79.5222 174.767 80.0401 174.355 80.63 174.079C81.2198 173.802 81.8654 173.667 82.5159 173.684C83.0281 173.675 83.5386 173.746 84.0291 173.895C84.3757 173.993 84.7054 174.143 85.0069 174.341V168.874ZM85.0069 176.218C84.3707 175.687 83.5746 175.389 82.7487 175.373C82.2915 175.36 81.8385 175.465 81.4333 175.678C81.0719 175.879 80.7643 176.164 80.537 176.511C80.2907 176.898 80.1171 177.328 80.0248 177.778C79.9123 178.298 79.8577 178.829 79.8618 179.362C79.7946 180.415 80.1089 181.457 80.7465 182.295C81.0317 182.633 81.3894 182.902 81.7927 183.081C82.196 183.259 82.6343 183.344 83.0746 183.327C83.4831 183.331 83.8915 183.308 84.2969 183.256C84.5442 183.226 84.7892 183.179 85.0302 183.116L85.0069 176.218Z" fill="#0198FF"/>
<path d="M94.8083 173.661C95.4368 173.622 96.0659 173.726 96.6499 173.963C97.2338 174.2 97.7579 174.566 98.184 175.033C98.9601 175.948 99.3481 177.336 99.3481 179.198V179.878H91.642C91.6465 180.359 91.7466 180.834 91.9366 181.275C92.1265 181.717 92.4024 182.115 92.7479 182.447C93.5358 183.076 94.5267 183.39 95.53 183.327C96.1162 183.337 96.7018 183.282 97.2761 183.163C97.6524 183.086 98.0193 182.968 98.3703 182.811L98.6264 184.453C98.2237 184.634 97.8019 184.767 97.3692 184.852C96.6964 185 96.0091 185.071 95.3205 185.063C94.4817 185.079 93.6477 184.932 92.8643 184.629C92.2052 184.369 91.6096 183.969 91.1182 183.456C90.6435 182.942 90.2859 182.329 90.0706 181.661C89.8322 180.931 89.7143 180.166 89.7214 179.397C89.7021 178.531 89.8524 177.67 90.1637 176.863C90.4278 176.202 90.824 175.603 91.3278 175.104C91.7946 174.644 92.349 174.285 92.9574 174.048C93.5454 173.805 94.1729 173.674 94.8083 173.661ZM97.4158 178.306C97.4591 177.509 97.2012 176.725 96.694 176.112C96.454 175.845 96.1587 175.634 95.8288 175.494C95.4989 175.354 95.1426 175.289 94.785 175.303C94.3638 175.299 93.9468 175.387 93.5627 175.561C93.2075 175.724 92.8872 175.955 92.6199 176.241C92.358 176.524 92.1454 176.849 91.9913 177.203C91.8373 177.554 91.7353 177.926 91.6886 178.306H97.4158Z" fill="#0198FF"/>
<path d="M108.777 182.083C108.779 181.896 108.737 181.711 108.654 181.544C108.571 181.377 108.45 181.232 108.3 181.121C107.944 180.848 107.552 180.627 107.136 180.465C106.664 180.277 106.146 180.095 105.587 179.913C105.039 179.744 104.509 179.52 104.004 179.244C103.558 178.993 103.163 178.658 102.84 178.259C102.509 177.823 102.34 177.283 102.363 176.734C102.359 176.311 102.453 175.892 102.637 175.512C102.821 175.131 103.09 174.799 103.422 174.54C104.125 173.954 105.23 173.661 106.74 173.661C107.351 173.661 107.962 173.704 108.567 173.79C109.115 173.859 109.656 173.973 110.185 174.13L109.836 175.889C109.671 175.81 109.5 175.743 109.324 175.69C109.08 175.612 108.831 175.549 108.579 175.502C108.3 175.45 107.997 175.403 107.683 175.373C107.368 175.344 107.06 175.326 106.763 175.326C105.087 175.326 104.249 175.788 104.249 176.711C104.252 176.879 104.298 177.043 104.381 177.189C104.465 177.335 104.583 177.457 104.726 177.544C105.099 177.8 105.501 178.009 105.925 178.165C106.408 178.353 106.926 178.547 107.485 178.752C108.027 178.939 108.549 179.179 109.045 179.467C109.503 179.73 109.91 180.076 110.244 180.488C110.572 180.921 110.741 181.456 110.721 182.001C110.738 182.451 110.639 182.898 110.435 183.298C110.232 183.699 109.929 184.04 109.557 184.289C108.794 184.828 107.595 185.098 105.948 185.098C105.261 185.102 104.575 185.04 103.9 184.91C103.297 184.782 102.712 184.585 102.153 184.324L102.526 182.564C103.078 182.819 103.65 183.027 104.237 183.186C104.864 183.354 105.51 183.437 106.158 183.432C107.904 183.425 108.777 182.975 108.777 182.083Z" fill="#0198FF"/>
<path d="M116.809 175.538H113.689V173.919H118.718V180.605C118.718 181.684 118.863 182.406 119.16 182.775C119.324 182.965 119.529 183.113 119.759 183.209C119.99 183.304 120.239 183.345 120.487 183.327C120.908 183.332 121.327 183.276 121.733 183.163C122.044 183.079 122.344 182.961 122.629 182.811L122.909 184.453L122.513 184.629C122.323 184.706 122.128 184.773 121.931 184.828C121.685 184.896 121.437 184.951 121.186 184.993C120.905 185.04 120.621 185.064 120.336 185.063C119.757 185.081 119.179 184.985 118.636 184.781C118.205 184.607 117.83 184.314 117.554 183.937C117.26 183.52 117.061 183.044 116.972 182.541C116.855 181.903 116.801 181.254 116.809 180.605V175.538ZM117.298 172.229C117.095 172.232 116.895 172.193 116.708 172.114C116.521 172.035 116.353 171.918 116.213 171.771C116.073 171.623 115.965 171.448 115.895 171.257C115.826 171.065 115.796 170.861 115.808 170.658C115.796 170.454 115.826 170.25 115.895 170.058C115.965 169.867 116.073 169.692 116.213 169.544C116.353 169.397 116.521 169.28 116.708 169.201C116.895 169.122 117.095 169.083 117.298 169.086C117.493 169.081 117.688 169.115 117.87 169.188C118.052 169.26 118.218 169.369 118.357 169.508C118.506 169.662 118.622 169.846 118.696 170.048C118.77 170.25 118.802 170.466 118.788 170.681C118.802 170.896 118.77 171.112 118.696 171.314C118.622 171.516 118.506 171.7 118.357 171.854C118.214 171.984 118.047 172.084 117.865 172.149C117.683 172.213 117.49 172.241 117.298 172.229Z" fill="#0198FF"/>
<path d="M132.314 183.796C131.994 183.962 131.659 184.096 131.313 184.195C130.806 184.344 130.281 184.415 129.753 184.406C129.145 184.411 128.542 184.304 127.972 184.089C127.426 183.881 126.933 183.552 126.529 183.127C126.091 182.656 125.757 182.096 125.551 181.485C125.297 180.73 125.175 179.936 125.19 179.139C125.183 178.389 125.301 177.644 125.539 176.934C125.75 176.3 126.082 175.714 126.517 175.209C126.951 174.718 127.488 174.329 128.089 174.071C128.759 173.788 129.48 173.648 130.207 173.661C131.007 173.648 131.806 173.715 132.593 173.86C133.251 173.995 133.81 174.124 134.258 174.247V183.96C134.258 185.65 133.835 186.87 132.989 187.62C132.145 188.371 130.865 188.746 129.16 188.746C128.523 188.753 127.888 188.698 127.262 188.582C126.752 188.487 126.25 188.354 125.76 188.183L126.11 186.471C126.557 186.654 127.021 186.796 127.495 186.893C128.058 187.008 128.632 187.063 129.206 187.057C130.061 187.135 130.915 186.893 131.604 186.377C131.869 186.079 132.069 185.73 132.194 185.35C132.318 184.971 132.363 184.569 132.326 184.171L132.314 183.796ZM132.314 175.631C132.063 175.552 131.806 175.493 131.546 175.455C131.106 175.394 130.663 175.367 130.219 175.373C129.786 175.347 129.353 175.428 128.957 175.607C128.562 175.787 128.216 176.061 127.949 176.406C127.395 177.209 127.121 178.174 127.169 179.151C127.158 179.695 127.233 180.237 127.39 180.758C127.507 181.162 127.705 181.537 127.972 181.861C128.212 182.136 128.51 182.353 128.845 182.494C129.178 182.629 129.534 182.697 129.893 182.693C130.355 182.697 130.815 182.625 131.255 182.482C131.622 182.37 131.971 182.204 132.291 181.99L132.314 175.631Z" fill="#0198FF"/>
<path d="M137.762 174.224C138.441 174.055 139.129 173.922 139.822 173.825C140.466 173.734 141.116 173.687 141.766 173.684C142.359 173.64 142.954 173.717 143.516 173.911C144.078 174.104 144.595 174.41 145.037 174.81C145.778 175.561 146.147 176.765 146.143 178.423V184.805H144.234V178.775C144.248 178.199 144.185 177.623 144.048 177.063C143.958 176.685 143.778 176.334 143.524 176.042C143.302 175.803 143.021 175.629 142.709 175.538C142.372 175.441 142.023 175.394 141.673 175.397C141.342 175.397 141.012 175.417 140.684 175.456C140.334 175.497 139.997 175.543 139.671 175.608V184.805H137.762V174.224Z" fill="#0198FF"/>
<path d="M153.942 173.661C154.571 173.622 155.2 173.726 155.784 173.963C156.368 174.2 156.892 174.566 157.318 175.033C158.094 175.948 158.482 177.336 158.482 179.198V179.878H150.776C150.78 180.359 150.881 180.834 151.071 181.275C151.26 181.717 151.536 182.115 151.882 182.447C152.664 183.071 153.645 183.384 154.641 183.327C155.227 183.337 155.812 183.282 156.387 183.163C156.763 183.086 157.13 182.968 157.481 182.811L157.737 184.453C157.334 184.634 156.913 184.767 156.48 184.852C155.807 185 155.12 185.071 154.431 185.063C153.592 185.079 152.758 184.932 151.975 184.629C151.316 184.369 150.72 183.969 150.229 183.456C149.754 182.942 149.397 182.329 149.181 181.661C148.943 180.931 148.825 180.166 148.832 179.397C148.813 178.531 148.963 177.67 149.274 176.863C149.538 176.202 149.935 175.603 150.438 175.104C150.905 174.644 151.46 174.285 152.068 174.048C152.663 173.802 153.299 173.671 153.942 173.661ZM156.55 178.306C156.587 177.506 156.32 176.722 155.805 176.112C155.565 175.845 155.269 175.634 154.939 175.494C154.61 175.354 154.253 175.289 153.896 175.303C153.474 175.299 153.057 175.387 152.673 175.561C152.318 175.724 151.998 175.955 151.731 176.241C151.485 176.528 151.288 176.853 151.148 177.203C150.995 177.554 150.893 177.926 150.846 178.306H156.55Z" fill="#0198FF"/>
<path d="M162.207 184.805V174.505C163.749 173.966 165.37 173.688 167.003 173.684C167.498 173.684 167.975 173.684 168.423 173.743C168.924 173.792 169.422 173.875 169.913 173.989L169.564 175.702C169.133 175.575 168.694 175.485 168.248 175.432C167.835 175.39 167.419 175.371 167.003 175.373C166.02 175.376 165.041 175.51 164.093 175.772V184.805H162.207Z" fill="#0198FF"/>
</svg>
